<svg width="50" height="50" viewBox="0 0 50 50" fill="none" xmlns="http://www.w3.org/2000/svg"><path d="M25 49.5C38.531 49.5 49.5 38.531 49.5 25C49.5 11.469 38.531 0.5 25 0.5C11.469 0.5 0.5 11.469 0.5 25C0.5 38.531 11.469 49.5 25 49.5Z" fill="white" stroke="#EEF2F4"></path><path d="M30 18H21.5L22.3478 19.6667L23.7391 20L29.3043 19.6667L30 18Z" fill="#FFA010"></path><path d="M38.6204 25.9899C38.3803 25.6909 37.4488 24.8044 35.5283 25.9052C35.5152 25.9132 35.5048 25.9211 35.4917 25.929L31.3167 28.9114C31.0532 28.4986 30.5261 28.2392 29.8868 28.2392C28.5743 28.2392 26.7608 27.8238 26.4555 27.7523C24.8246 26.9505 23.0503 26.8552 21.3228 27.4692C20.3 27.8343 19.5772 28.3451 19.2928 28.5674L17.307 28.5303V27.2231C17.307 26.9823 17.1139 26.7891 16.8791 26.7891H12.4484C12.3101 26.7891 12.1822 26.8552 12.1013 26.969C10.5618 29.1151 10.0712 31.6741 10.687 34.3732C11.1463 36.395 12.0543 37.771 12.0935 37.8266C12.1744 37.9457 12.3048 38.0171 12.4484 38.0171H16.8765C17.1139 38.0171 17.3044 37.8213 17.3044 37.5831V36.4003C18.5021 36.6067 21.5968 37.0777 24.7933 37.0777C26.4424 37.0777 28.115 36.9533 29.5685 36.5987C30.2104 36.4426 30.9462 35.9663 31.8204 35.1406C34.3958 32.7114 36.7938 30.2319 38.5708 28.1598C39.0979 27.5459 39.1214 26.6118 38.6204 25.9899ZM12.6858 37.1491C12.4379 36.7257 11.8534 35.6276 11.522 34.1774C10.9741 31.772 11.3603 29.5782 12.6702 27.657H16.4485V37.1491H12.6858ZM37.9237 27.5909C36.165 29.6391 33.7878 32.0975 31.2359 34.5055C30.2991 35.3894 29.7015 35.6725 29.3675 35.7546C25.1899 36.7681 18.8492 35.7837 17.3044 35.5191V29.3983L19.431 29.438C19.538 29.4406 19.6398 29.4036 19.7181 29.3321C19.7468 29.3057 22.6562 26.8208 26.1215 28.5541C26.1502 28.5674 26.1789 28.5779 26.2102 28.5859C26.2963 28.6071 28.3551 29.1072 29.8868 29.1072C30.3278 29.1072 30.6044 29.3004 30.6383 29.483C30.6931 29.774 30.2652 30.2848 29.1953 30.7188C27.6245 31.3565 25.6831 30.7161 25.6648 30.7108C25.4404 30.6341 25.1978 30.7585 25.1221 30.986C25.0464 31.2136 25.1691 31.4597 25.3935 31.5365C25.4535 31.5576 26.4085 31.8752 27.5853 31.8725C28.1985 31.8725 28.8744 31.7852 29.5137 31.5259C30.8653 30.9781 31.322 30.343 31.4524 29.8667C31.4785 29.8561 31.502 29.8402 31.5255 29.8243L35.9667 26.6541C36.8486 26.154 37.608 26.109 37.955 26.5403C38.1951 26.8394 38.182 27.2892 37.9237 27.5909Z" fill="#303A4B"></path><path d="M14.4341 33.6331C13.6225 33.6331 12.965 34.3026 12.965 35.1229C12.965 35.9459 13.6252 36.6128 14.4341 36.6128C15.2456 36.6128 15.9031 35.9433 15.9031 35.1229C15.9057 34.3026 15.2456 33.6331 14.4341 33.6331ZM14.4341 35.7448C14.0975 35.7448 13.8209 35.4669 13.8209 35.1229C13.8209 34.7816 14.0948 34.5011 14.4341 34.5011C14.7707 34.5011 15.0473 34.7789 15.0473 35.1229C15.0473 35.4669 14.7733 35.7448 14.4341 35.7448Z" fill="#303A4B"></path><path d="M19.1052 22.0534C19.567 22.0534 19.9428 21.6723 19.9428 21.2039C19.9428 20.7356 19.567 20.3545 19.1052 20.3545C18.6433 20.3545 18.2676 20.7356 18.2676 21.2039C18.2676 21.6723 18.6433 22.0534 19.1052 22.0534ZM19.1052 21.1854C19.1156 21.1854 19.1235 21.1934 19.1235 21.2039C19.1235 21.2251 19.0869 21.2251 19.0869 21.2039C19.0869 21.1934 19.0948 21.1854 19.1052 21.1854Z" fill="#303A4B"></path><path d="M17.1738 24.5059C17.1738 24.9637 17.5391 25.3341 17.9906 25.3341H19.5353C19.9867 25.3341 20.352 24.9637 20.352 24.5059V23.577H30.9852V24.5059C30.9852 24.9637 31.3506 25.3341 31.802 25.3341H33.3467C33.7981 25.3341 34.1635 24.9637 34.1635 24.5059V18.6629C34.1635 17.742 33.7616 16.8873 33.0727 16.3131L33.0806 16.2945L33.8582 16.059C34.0408 16.0035 34.1635 15.8341 34.1635 15.6436V15.027C34.1635 14.7862 33.9704 14.593 33.7355 14.593H32.2325C32.0734 14.593 31.9324 14.683 31.8594 14.8126L30.9148 13.1958C30.5338 12.5448 29.8371 12.1426 29.0908 12.1426H22.2438C21.5002 12.1426 20.8009 12.5448 20.4225 13.1958L19.4779 14.8126C19.4048 14.6803 19.2639 14.593 19.1048 14.593H17.6018C17.3643 14.593 17.1738 14.7888 17.1738 15.027V15.6436C17.1738 15.8367 17.2991 16.0061 17.4791 16.059L18.2567 16.2945L18.2645 16.3131C17.5757 16.8873 17.1738 17.742 17.1738 18.6629V24.5059ZM20.0311 18.8826L20.112 19.0784L18.0297 18.6603C18.0297 18.3322 18.1028 18.0173 18.2332 17.7341L20.0311 18.8826ZM20.7435 20.0893C20.7722 20.0946 20.7982 20.0972 20.827 20.0972C20.9548 20.0972 21.0775 20.039 21.161 19.9358C21.2601 19.8114 21.2836 19.6394 21.221 19.4912L20.7669 18.4142C20.733 18.3322 20.6756 18.2634 20.6025 18.2184L18.7525 17.0355C18.836 16.9614 18.9221 16.8926 19.016 16.8317L19.2039 16.7391H32.1203C32.1229 16.7391 32.1255 16.7391 32.1308 16.7391L32.3212 16.8317C32.4152 16.8926 32.5039 16.9614 32.5848 17.0355L30.7347 18.221C30.6617 18.2687 30.6043 18.3375 30.5704 18.4168L30.1163 19.4939C30.0537 19.6421 30.0772 19.8141 30.1763 19.9384C30.2598 20.0416 30.3825 20.0999 30.5103 20.0999C30.539 20.0999 30.5651 20.0972 30.5938 20.0919L33.3076 19.5468V22.0184L32.3891 22.7091H18.9508L18.0323 22.0184V19.5468L20.7435 20.0893ZM33.305 18.6576L31.2227 19.0758L31.3036 18.8799L33.1014 17.7288C33.2319 18.0146 33.305 18.3295 33.305 18.6576ZM18.0297 24.4662V23.0981L18.5516 23.4897C18.6246 23.5453 18.716 23.5744 18.8073 23.5744H19.4962V24.4662H18.0297ZM31.8411 23.577H32.53C32.6213 23.577 32.7127 23.5479 32.7857 23.4924L33.3076 23.1007V24.4688H31.8411V23.577ZM32.6579 15.461H32.8353L32.6579 15.5139V15.461ZM21.1583 13.6377C21.3854 13.2514 21.8002 13.0105 22.2438 13.0105H29.0908C29.5344 13.0105 29.9493 13.2514 30.1763 13.6377L31.4784 15.8685H19.8563L21.1583 13.6377ZM18.6768 15.461V15.5139L18.4994 15.461H18.6768Z" fill="#303A4B"></path><path d="M22.2461 20.3277L25.5705 20.6479C25.5992 20.6532 25.6279 20.6559 25.6566 20.6559H25.6827C25.7114 20.6559 25.7401 20.6532 25.7688 20.6479L29.0931 20.3277C29.2419 20.3145 29.3723 20.2219 29.4376 20.0869L30.4291 18.052C30.4944 17.917 30.4865 17.7582 30.4082 17.6312C30.33 17.5042 30.1917 17.4248 30.0455 17.4248H21.2937C21.145 17.4248 21.0067 17.5015 20.931 17.6312C20.8527 17.7582 20.8449 17.9197 20.9101 18.052L21.9017 20.0869C21.9669 20.2245 22.0974 20.3145 22.2461 20.3277ZM29.3514 18.2954L28.7696 19.4862L25.667 19.7826L22.5645 19.4836L21.9826 18.2928H29.3514V18.2954Z" fill="#303A4B"></path><path d="M32.2292 22.0534C32.6911 22.0534 33.0668 21.6723 33.0668 21.2039C33.0668 20.7356 32.6911 20.3545 32.2292 20.3545C31.7673 20.3545 31.3916 20.7356 31.3916 21.2039C31.3916 21.6723 31.7673 22.0534 32.2292 22.0534ZM32.2292 21.1854C32.2396 21.1854 32.2475 21.1934 32.2475 21.2039C32.2475 21.2251 32.2109 21.2251 32.2109 21.2039C32.2109 21.1934 32.2188 21.1854 32.2292 21.1854Z" fill="#303A4B"></path><path d="M27.6313 21.1846H23.592C23.3545 21.1846 23.1641 21.3804 23.1641 21.6186C23.1641 21.8594 23.3572 22.0525 23.592 22.0525H27.6313C27.8688 22.0525 28.0593 21.8567 28.0593 21.6186C28.0593 21.3804 27.8688 21.1846 27.6313 21.1846Z" fill="#303A4B"></path></svg>