<svg width="25" height="24" viewBox="0 0 25 24" fill="none" xmlns="http://www.w3.org/2000/svg">
<g opacity="0.2" clip-path="url(#clip0_1480_1433)">
<path d="M17.833 5.00005C18.663 5.00005 19.333 4.33005 19.333 3.50005C19.333 2.50005 17.833 0.800049 17.833 0.800049C17.833 0.800049 16.333 2.50005 16.333 3.50005C16.333 4.33005 17.003 5.00005 17.833 5.00005ZM12.833 5.00005C13.663 5.00005 14.333 4.33005 14.333 3.50005C14.333 2.50005 12.833 0.800049 12.833 0.800049C12.833 0.800049 11.333 2.50005 11.333 3.50005C11.333 4.33005 12.003 5.00005 12.833 5.00005ZM7.83301 5.00005C8.66301 5.00005 9.33301 4.33005 9.33301 3.50005C9.33301 2.50005 7.83301 0.800049 7.83301 0.800049C7.83301 0.800049 6.33301 2.50005 6.33301 3.50005C6.33301 4.33005 7.00301 5.00005 7.83301 5.00005ZM19.753 8.01005C19.553 7.42005 18.993 7.00005 18.333 7.00005H7.33301C6.67301 7.00005 6.12301 7.42005 5.91301 8.01005L3.83301 14V22C3.83301 22.55 4.28301 23 4.83301 23H5.83301C6.38301 23 6.83301 22.55 6.83301 22V21H18.833V22C18.833 22.55 19.283 23 19.833 23H20.833C21.383 23 21.833 22.55 21.833 22V14L19.753 8.01005ZM7.33301 18C6.50301 18 5.83301 17.33 5.83301 16.5C5.83301 15.67 6.50301 15 7.33301 15C8.16301 15 8.83301 15.67 8.83301 16.5C8.83301 17.33 8.16301 18 7.33301 18ZM18.333 18C17.503 18 16.833 17.33 16.833 16.5C16.833 15.67 17.503 15 18.333 15C19.163 15 19.833 15.67 19.833 16.5C19.833 17.33 19.163 18 18.333 18ZM5.83301 13L7.33301 8.50005H18.333L19.833 13H5.83301Z" fill="black"/>
</g>
<defs>
<clipPath id="clip0_1480_1433">
<rect width="24" height="24" fill="white" transform="translate(0.833008)"/>
</clipPath>
</defs>
</svg>
