<svg width="16" height="16" viewBox="0 0 16 16" fill="none" xmlns="http://www.w3.org/2000/svg">
<path d="M1.66699 8L3.00033 8.66667" stroke="white" stroke-linecap="round" stroke-linejoin="round"/>
<path d="M14.3333 8.33203L13 8.66536" stroke="white" stroke-linecap="round" stroke-linejoin="round"/>
<path d="M5.33301 11.6667L5.49679 11.2572C5.74035 10.6483 5.86213 10.3439 6.11608 10.1719C6.37003 10 6.69794 10 7.35374 10H8.64561C9.30141 10 9.62934 10 9.88327 10.1719C10.1372 10.3439 10.259 10.6483 10.5025 11.2572L10.6663 11.6667" stroke="white" stroke-linecap="round" stroke-linejoin="round"/>
<path d="M1.33301 11.332V13.2534C1.33301 13.5058 1.49351 13.7367 1.74759 13.8496C1.91246 13.9229 2.06993 13.9987 2.26006 13.9987H3.40595C3.59609 13.9987 3.75355 13.9229 3.91842 13.8496C4.17251 13.7367 4.33301 13.5058 4.33301 13.2534V11.9987" stroke="white" stroke-linecap="round" stroke-linejoin="round"/>
<path d="M11.667 11.9987V13.2534C11.667 13.5058 11.8275 13.7367 12.0816 13.8496C12.2465 13.9229 12.4039 13.9987 12.5941 13.9987H13.7399C13.9301 13.9987 14.0875 13.9229 14.2524 13.8496C14.5065 13.7367 14.667 13.5058 14.667 13.2534V11.332" stroke="white" stroke-linecap="round" stroke-linejoin="round"/>
<path d="M13.333 5.66536L13.9997 5.33203" stroke="white" stroke-linecap="round" stroke-linejoin="round"/>
<path d="M2.66667 5.66536L2 5.33203" stroke="white" stroke-linecap="round" stroke-linejoin="round"/>
<path d="M3 6L3.72553 3.82339C4.01888 2.94337 4.16555 2.50335 4.51473 2.25168C4.86391 2 5.32773 2 6.25536 2H9.74467C10.6723 2 11.1361 2 11.4853 2.25168C11.8345 2.50335 11.9811 2.94337 12.2745 3.82339L13 6" stroke="white" stroke-linejoin="round"/>
<path d="M2.99967 6H12.9997C13.6378 6.67567 14.6663 7.6166 14.6663 8.6664V10.9801C14.6663 11.3605 14.4133 11.6805 14.0775 11.725L11.9997 12H3.99967L1.92178 11.725C1.58604 11.6805 1.33301 11.3605 1.33301 10.9801V8.6664C1.33301 7.6166 2.36153 6.67567 2.99967 6Z" stroke="white" stroke-linejoin="round"/>
</svg>
