<svg width="16" height="16" viewBox="0 0 16 16" fill="none" xmlns="http://www.w3.org/2000/svg">
<path d="M14.6663 7.70983C14.6663 11.232 11.6811 14.0876 7.99967 14.0876C7.56681 14.0882 7.13514 14.0482 6.70994 13.9684C6.40389 13.9108 6.25086 13.8821 6.14403 13.8984C6.03719 13.9148 5.88579 13.9952 5.583 14.1563C4.72643 14.6118 3.72764 14.7727 2.76708 14.594C3.13217 14.145 3.38151 13.6062 3.49153 13.0286C3.55819 12.6752 3.39301 12.332 3.1456 12.0808C2.02189 10.9397 1.33301 9.4021 1.33301 7.70983C1.33301 4.18774 4.31819 1.33203 7.99967 1.33203C11.6811 1.33203 14.6663 4.18774 14.6663 7.70983Z" stroke="white" stroke-linejoin="round"/>
<path d="M7.99667 8H8.00267M10.6603 8H10.6663M5.33301 8H5.33899" stroke="white" stroke-width="1.33333" stroke-linecap="round" stroke-linejoin="round"/>
</svg>
