<svg width="18" height="17" viewBox="0 0 18 17" fill="none" xmlns="http://www.w3.org/2000/svg">
<path fill-rule="evenodd" clip-rule="evenodd" d="M15.6485 5.69017C16.5428 6.33434 17.1501 7.33261 17.1501 8.50039C17.1501 9.66817 16.5428 10.6672 15.6485 11.3106C15.8293 12.397 15.5476 13.5392 14.7241 14.3619C13.8991 15.1869 12.7577 15.4611 11.6758 15.2848C11.0347 16.1821 10.0273 16.7879 8.86257 16.7879C7.69479 16.7879 6.69426 16.1799 6.0516 15.2841C4.9682 15.4611 3.82603 15.1876 3.0003 14.3619C2.17531 13.5369 1.90107 12.3948 2.0834 11.3106C1.18986 10.6679 0.575073 9.66893 0.575073 8.50039C0.575073 7.33185 1.18986 6.33208 2.0834 5.69017C1.90107 4.60602 2.17531 3.46385 3.00105 2.63887C3.82453 1.81464 4.96745 1.53362 6.05763 1.71443C6.69652 0.818631 7.69705 0.212891 8.86257 0.212891C10.0266 0.212891 11.0324 0.817878 11.6743 1.71443C12.7607 1.53362 13.9014 1.81614 14.7241 2.63887C15.5468 3.46159 15.8301 4.60376 15.6485 5.69017ZM12.3139 5.62689C12.3945 5.68437 12.4629 5.75715 12.5153 5.84108C12.5677 5.925 12.6031 6.01843 12.6194 6.11603C12.6357 6.21363 12.6326 6.31348 12.6103 6.40988C12.588 6.50629 12.547 6.59736 12.4895 6.67789L8.72244 11.9518C8.65885 12.0408 8.57662 12.115 8.48147 12.169C8.38632 12.2231 8.28053 12.2558 8.17147 12.2648C8.06241 12.2738 7.95269 12.259 7.84994 12.2213C7.74719 12.1837 7.65388 12.1241 7.5765 12.0467L5.31628 9.78646C5.17904 9.64436 5.1031 9.45405 5.10481 9.25651C5.10653 9.05897 5.18577 8.87 5.32545 8.73032C5.46514 8.59063 5.65411 8.51139 5.85165 8.50968C6.04919 8.50796 6.2395 8.5839 6.3816 8.72114L8.01273 10.3523L11.2629 5.80168C11.3791 5.63913 11.5551 5.5294 11.7522 5.49662C11.9493 5.46385 12.1514 5.5107 12.3139 5.62689Z" fill="#4973E9"/>
</svg>
