<svg width="64" height="45" viewBox="0 0 64 45" fill="none" xmlns="http://www.w3.org/2000/svg">
<path d="M32 0.268555C36.6309 0.268555 41.2689 2.01848 44.8022 5.53235C47.8009 8.51463 49.5281 12.2849 49.9819 16.1724C57.3555 16.8382 63.1234 22.9951 63.1234 30.5016C63.1234 38.4526 56.6422 44.8983 48.6474 44.8983H13.1812C6.36444 44.8983 0.876587 39.4406 0.876587 32.6611C0.876587 25.8817 6.36444 20.4239 13.1812 20.4239H14.0407C13.4029 15.13 15.1354 9.59496 19.2204 5.53235C22.7535 2.01848 27.369 0.268555 32 0.268555ZM32 15.3851C31.6158 15.3837 31.346 15.4554 31.0273 15.745L23.0655 22.9434C22.4992 23.4488 22.3951 24.4351 22.9525 24.9904C23.4901 25.526 24.4489 25.5906 25.0108 25.0803L30.5524 20.064V35.5405C30.5524 36.3356 31.2003 36.9802 32 36.9802C32.7996 36.9802 33.4476 36.3356 33.4476 35.5405V20.064L38.9891 25.0803C39.5511 25.5906 40.5367 25.5513 41.0475 24.9904C41.5582 24.4293 41.5293 23.4583 40.9344 22.9434L32.9726 15.745C32.7658 15.5566 32.3871 15.3923 32 15.3851Z" fill="#2D74FF"/>
</svg>
