<svg width="50" height="50" viewBox="0 0 50 50" fill="none" xmlns="http://www.w3.org/2000/svg"><circle cx="25" cy="25" r="24.5" fill="white" stroke="#EEF2F4"></circle><path d="M25.6813 26.748C25.6813 27.68 25.0712 28.429 24.3119 28.429C23.5662 28.429 22.9561 27.68 22.9561 26.748C22.9561 25.9491 23.2272 25.4664 23.5391 24.9172L23.5461 24.905C23.7751 24.5083 24.0425 24.0448 24.217 23.3694C24.2306 23.3194 24.2712 23.2861 24.3119 23.2861C24.3526 23.2861 24.3933 23.3194 24.4068 23.3694C24.5831 24.0351 24.8543 24.5011 25.0848 24.9172C25.4102 25.4664 25.6813 25.9491 25.6813 26.748Z" fill="#FFA010"></path><path d="M30.5404 32.4433H17.9714C17.7585 32.4433 17.5843 32.2688 17.5843 32.0555V16.9041C17.5843 14.7516 19.3329 12.9999 21.4814 12.9999H27.0304C29.1789 12.9999 30.9275 14.7516 30.9275 16.9041V32.0555C30.9275 32.2688 30.7533 32.4433 30.5404 32.4433ZM18.3586 31.6676H30.1532V16.9041C30.1532 15.1782 28.7531 13.7756 27.0304 13.7756H21.4814C19.7587 13.7756 18.3586 15.1782 18.3586 16.9041V31.6676Z" fill="#303A4B"></path><path d="M31.5924 33.8201H16.9201C16.7072 33.8201 16.533 33.6456 16.533 33.4323V32.5144C16.533 32.0425 16.9136 31.6612 17.3847 31.6612H31.1279C31.5989 31.6612 31.9796 32.0425 31.9796 32.5144V33.4323C31.9796 33.6456 31.8054 33.8201 31.5924 33.8201ZM17.3072 33.0444H31.2053V32.5144C31.2053 32.4756 31.1731 32.4368 31.1279 32.4368H17.3847C17.3459 32.4368 17.3072 32.4692 17.3072 32.5144V33.0444Z" fill="#303A4B"></path><path d="M32.5534 36.9999H15.9583C15.7454 36.9999 15.5712 36.8254 15.5712 36.612V34.0394C15.5712 33.49 16.0164 33.044 16.5648 33.044H31.9469C32.4954 33.044 32.9406 33.49 32.9406 34.0394V36.612C32.9406 36.8254 32.7664 36.9999 32.5534 36.9999ZM16.3455 36.2242H32.1663V34.0394C32.1663 33.9166 32.0695 33.8197 31.9469 33.8197H16.5648C16.4422 33.8197 16.3455 33.9166 16.3455 34.0394V36.2242Z" fill="#303A4B"></path><path d="M35.2693 24.3438H32.5529C32.34 24.3438 32.1658 24.1693 32.1658 23.956V19.2955C32.1658 19.1921 32.2045 19.0951 32.2819 19.0176L34.5466 16.781C34.695 16.6324 34.9402 16.6324 35.0951 16.781L37.0178 18.7073C37.1662 18.856 37.1662 19.1016 37.0178 19.2567L35.6564 20.64V23.956C35.6564 24.1693 35.4887 24.3438 35.2693 24.3438ZM34.8822 23.5681V20.4849C34.8822 20.3814 34.9209 20.2845 34.9919 20.2134L36.192 18.9917L34.8112 17.6084L32.9336 19.4571V23.5681H34.8822Z" fill="#303A4B"></path><path d="M31.6375 31.1238H30.5406C30.3277 31.1238 30.1535 30.9492 30.1535 30.7359V29.385C30.1535 29.1717 30.3277 28.9971 30.5406 28.9971H31.6375C32.315 28.9971 32.8634 28.4477 32.8634 27.769V23.9488C32.8634 23.7355 33.0376 23.561 33.2506 23.561H34.5991C34.812 23.561 34.9862 23.7355 34.9862 23.9488V27.769C34.9862 29.6177 33.4828 31.1238 31.6375 31.1238ZM30.9278 30.3481H31.6375C33.057 30.3481 34.2055 29.1911 34.2055 27.7755V24.3431H33.6377V27.7755C33.6377 28.8808 32.7408 29.7793 31.6375 29.7793H30.9278V30.3481Z" fill="#303A4B"></path><path d="M36.3737 19.0048C36.2769 19.0048 36.1737 18.966 36.1027 18.8884L34.8768 17.6603C34.8058 17.5892 34.7606 17.4857 34.7606 17.3888C34.7606 17.2854 34.7994 17.1884 34.8768 17.1173L35.8833 16.1089C36.1543 15.8374 36.5995 15.8374 36.877 16.1089L37.6577 16.8911C37.9287 17.1625 37.9287 17.6086 37.6577 17.8865L36.6511 18.8949C36.5737 18.9724 36.4705 19.0048 36.3737 19.0048ZM35.6898 17.3888L36.3672 18.0675L37.0447 17.3888L36.3672 16.7101L35.6898 17.3888Z" fill="#303A4B"></path><path d="M28.5724 20.6345H19.9394C19.7264 20.6345 19.5522 20.4599 19.5522 20.2466V16.9565C19.5522 15.9417 20.3781 15.1143 21.3911 15.1143H27.1207C28.1337 15.1143 28.9596 15.9417 28.9596 16.9565V20.2466C28.9596 20.4599 28.7853 20.6345 28.5724 20.6345ZM20.3265 19.8588H28.1853V16.9565C28.1853 16.3683 27.7078 15.89 27.1207 15.89H21.3911C20.8039 15.89 20.3265 16.3683 20.3265 16.9565V19.8588Z" fill="#303A4B"></path><path d="M25.7659 20.6335H22.7527C22.5398 20.6335 22.3656 20.459 22.3656 20.2457C22.3656 19.1986 23.2172 18.3453 24.2625 18.3453C25.3078 18.3453 26.1595 19.1986 26.1595 20.2457C26.153 20.459 25.9788 20.6335 25.7659 20.6335ZM23.2043 19.8579H25.3078C25.1529 19.4313 24.74 19.121 24.2561 19.121C23.7721 19.1275 23.3656 19.4313 23.2043 19.8579Z" fill="#303A4B"></path><path d="M24.8883 19.2627C24.8302 19.2627 24.7786 19.2498 24.727 19.2239C24.4302 19.0817 24.0882 19.0817 23.7849 19.2239C23.6494 19.2886 23.4817 19.2627 23.372 19.1658C23.2559 19.0688 23.2107 18.9072 23.2559 18.765L23.8882 16.6319C23.9398 16.4703 24.0882 16.354 24.2624 16.354C24.4366 16.354 24.585 16.4639 24.6366 16.6319L25.2689 18.765C25.3141 18.9137 25.2689 19.0688 25.1528 19.1658C25.0689 19.2304 24.9786 19.2627 24.8883 19.2627ZM24.2559 18.3513C24.2818 18.3513 24.3076 18.3513 24.3269 18.3513L24.2559 18.1057L24.185 18.3513C24.2043 18.3513 24.2301 18.3513 24.2559 18.3513Z" fill="#303A4B"></path><path fill-rule="evenodd" clip-rule="evenodd" d="M18.3586 31.6612H30.1532V16.9041C30.1532 15.1782 28.7531 13.7756 27.0304 13.7756H21.4814C19.7587 13.7756 18.3586 15.1782 18.3586 16.9041L18.3586 31.6612ZM17.3847 31.6612C16.9136 31.6612 16.533 32.0425 16.533 32.5144L16.533 33.0445C16.4992 33.0456 16.4658 33.0483 16.433 33.0527C15.9468 33.1174 15.5712 33.5348 15.5712 34.0394V36.612C15.5712 36.8254 15.7454 36.9999 15.9583 36.9999H32.5534C32.7664 36.9999 32.9406 36.8254 32.9406 36.612V34.0394C32.9406 33.5351 32.5654 33.1178 32.0796 33.0528C32.0467 33.0484 32.0134 33.0456 31.9796 33.0445V32.5144C31.9796 32.0425 31.5989 31.6612 31.1279 31.6612H30.9275V31.1238H31.6375C33.4828 31.1238 34.9862 29.6177 34.9862 27.769V24.3438H35.2693C35.4887 24.3438 35.6564 24.1693 35.6564 23.956V20.64L37.0178 19.2567C37.1662 19.1016 37.1662 18.856 37.0178 18.7073L36.9281 18.6174L37.6577 17.8865C37.9287 17.6086 37.9287 17.1625 37.6577 16.8911L36.877 16.1089C36.5995 15.8374 36.1543 15.8374 35.8833 16.1089L35.1538 16.8398L35.0951 16.781C35.091 16.7771 35.0868 16.7733 35.0826 16.7696C34.9273 16.6325 34.6911 16.6363 34.5466 16.781L32.2819 19.0176C32.2045 19.0951 32.1658 19.1921 32.1658 19.2955V23.956C32.1658 24.1693 32.34 24.3438 32.5529 24.3438H32.8634V27.769C32.8634 28.4477 32.315 28.9971 31.6375 28.9971H30.9275V16.9041C30.9275 14.7516 29.1789 12.9999 27.0304 12.9999H21.4814C19.3329 12.9999 17.5843 14.7516 17.5843 16.9041L17.5843 31.6612H17.3847ZM17.4843 31.5612H17.3847C16.8582 31.5612 16.433 31.9875 16.433 32.5144V32.9519C15.8913 33.0172 15.4712 33.4796 15.4712 34.0394V36.612C15.4712 36.8804 15.69 37.0999 15.9583 37.0999H32.5534C32.8218 37.0999 33.0406 36.8804 33.0406 36.612V34.0394C33.0406 33.4799 32.6209 33.0176 32.0796 32.952V32.5144C32.0796 31.9875 31.6543 31.5612 31.1279 31.5612H31.0275V31.2238H31.6375C33.5382 31.2238 35.0862 29.6727 35.0862 27.769V24.4438H35.2693C35.5452 24.4438 35.7564 24.2232 35.7564 23.956V20.6809L37.0891 19.3269L37.0901 19.3258C37.2747 19.1329 37.2768 18.8252 37.0886 18.6366L37.0694 18.6174L37.7285 17.9571L37.7293 17.9563C38.0377 17.64 38.0389 17.1314 37.7285 16.8204L36.9478 16.0383L36.9469 16.0375C36.6311 15.7284 36.1231 15.7272 35.8126 16.0383L35.1534 16.6987C34.9603 16.524 34.661 16.5253 34.4762 16.71L32.2116 18.9464C32.1155 19.0428 32.0658 19.1657 32.0658 19.2955V23.956C32.0658 24.2243 32.2846 24.4438 32.5529 24.4438H32.7634V27.769C32.7634 28.3927 32.2596 28.8971 31.6375 28.8971H31.0275V16.9041C31.0275 14.6966 29.2343 12.8999 27.0304 12.8999H21.4814C19.2775 12.8999 17.4843 14.6966 17.4843 16.9041V31.5612ZM31.6375 30.3481C33.057 30.3481 34.2055 29.1911 34.2055 27.7755V24.3431H33.6377V27.7755C33.6377 28.8808 32.7408 29.7793 31.6375 29.7793H30.9278V30.3481H31.6375ZM31.0278 30.2481H31.6375C33.0014 30.2481 34.1055 29.1362 34.1055 27.7755V24.4438H33.7377V27.7755C33.7377 28.9359 32.7962 29.8793 31.6375 29.8793H31.0278V30.2481ZM34.8822 20.4849C34.8822 20.3814 34.9209 20.2845 34.9919 20.2134L36.192 18.9917L34.8112 17.6084L32.9336 19.4571V23.5681H33.1767C33.2007 23.5635 33.2253 23.561 33.2506 23.561H34.5991C34.6243 23.561 34.649 23.5635 34.6729 23.5681H34.8822V20.4849ZM34.7822 23.4681V20.4849C34.7822 20.3564 34.8303 20.2338 34.9208 20.143L36.0512 18.9923L34.8106 17.7494L33.0336 19.499V23.4681H33.1675C33.1945 23.4634 33.2223 23.461 33.2506 23.461H34.5991C34.6274 23.461 34.6551 23.4634 34.6821 23.4681H34.7822ZM35.6957 17.3828L36.3732 18.0615L37.0447 17.3888L36.3672 16.7101L35.6957 17.3828ZM36.3672 16.8516L35.837 17.3828L36.3732 17.9199L36.9034 17.3888L36.3672 16.8516ZM30.6106 32.4368C30.5878 32.4411 30.5643 32.4433 30.5404 32.4433H17.9714C17.9475 32.4433 17.924 32.4411 17.9012 32.4368H17.3847C17.3459 32.4368 17.3072 32.4692 17.3072 32.5144V33.0444H31.2053V32.5144C31.2053 32.4756 31.1731 32.4368 31.1279 32.4368H30.6106ZM31.1053 32.944V32.5368H30.6194C30.5937 32.5411 30.5673 32.5433 30.5404 32.5433H17.9714C17.9445 32.5433 17.9181 32.5411 17.8924 32.5368H17.4072V32.944H31.1053ZM31.6114 33.8197L31.6025 33.82L31.5924 33.8201H16.9201C16.9138 33.8201 16.9074 33.82 16.9012 33.8197H16.5648C16.4422 33.8197 16.3455 33.9166 16.3455 34.0394V36.2242H32.1663V34.0394C32.1663 33.9166 32.0695 33.8197 31.9469 33.8197H31.6114ZM32.0663 36.1242V34.0394C32.0663 33.9717 32.0141 33.9197 31.9469 33.9197H31.6137C31.6067 33.92 31.5996 33.9201 31.5924 33.9201H16.9201C16.913 33.9201 16.9059 33.92 16.8988 33.9197H16.5648C16.4976 33.9197 16.4455 33.9717 16.4455 34.0394V36.1242H32.0663ZM30.0532 31.5612V16.9041C30.0532 15.2333 28.6977 13.8756 27.0304 13.8756H21.4814C19.8141 13.8756 18.4586 15.2333 18.4586 16.9041V31.5612H30.0532ZM28.1853 19.8588V16.9565C28.1853 16.3683 27.7078 15.89 27.1207 15.89H21.3911C20.8039 15.89 20.3265 16.3683 20.3265 16.9565V19.8588L22.4051 19.8588C22.4121 19.8251 22.42 19.7918 22.4288 19.7588C22.5448 19.3212 22.8133 18.9449 23.1735 18.6909C23.2153 18.6614 23.2584 18.6335 23.3026 18.6074L23.8882 16.6319C23.9398 16.4703 24.0882 16.354 24.2624 16.354C24.4366 16.354 24.585 16.4639 24.6366 16.6319L25.2222 18.6073C25.2664 18.6334 25.3094 18.6612 25.3512 18.6907C25.7115 18.9447 25.9802 19.3211 26.0962 19.7588C26.105 19.7918 26.1129 19.8251 26.1199 19.8588L28.1853 19.8588ZM26.1995 19.7588H28.0853V16.9565C28.0853 16.4234 27.6524 15.99 27.1207 15.99H21.3911C20.8593 15.99 20.4265 16.4234 20.4265 16.9565V19.7588H22.3255C22.454 19.2468 22.7802 18.8122 23.2177 18.5418L23.7929 16.6015C23.857 16.4009 24.0421 16.254 24.2624 16.254C24.4809 16.254 24.6678 16.3928 24.7322 16.6026L25.307 18.5417C25.7447 18.812 26.071 19.2467 26.1995 19.7588ZM19.9394 20.6345C19.7264 20.6345 19.5522 20.4599 19.5522 20.2466V16.9565C19.5522 15.9417 20.3781 15.1143 21.3911 15.1143H27.1207C28.1337 15.1143 28.9596 15.9417 28.9596 16.9565V20.2466C28.9596 20.4599 28.7853 20.6345 28.5724 20.6345H19.9394ZM28.5724 20.7345H19.9394C19.671 20.7345 19.4522 20.515 19.4522 20.2466V16.9565C19.4522 15.8866 20.3227 15.0143 21.3911 15.0143H27.1207C28.1891 15.0143 29.0596 15.8866 29.0596 16.9565V20.2466C29.0596 20.515 28.8407 20.7345 28.5724 20.7345Z" fill="#303A4B"></path><path fill-rule="evenodd" clip-rule="evenodd" d="M23.7784 23.2884C23.8328 23.1291 23.9852 23.036 24.1344 23.036C24.2835 23.036 24.4359 23.1291 24.4903 23.2884L24.491 23.2902C24.6878 23.8813 24.9833 24.3042 25.2623 24.7034C25.2781 24.726 25.2938 24.7484 25.3095 24.7709C25.7203 25.3221 26.1072 25.8623 26.1072 26.7479C26.1072 27.8238 25.2218 28.6789 24.1344 28.6789C23.0623 28.6789 22.1786 27.8222 22.1786 26.7479C22.1786 25.8638 22.5646 25.3235 22.956 24.7755L22.9598 24.7702L22.9643 24.764C23.253 24.3664 23.57 23.9297 23.7772 23.292L23.7784 23.2884ZM24.1373 24.3474C24.3043 24.6497 24.4845 24.9068 24.6469 25.1384C24.6638 25.1626 24.6805 25.1865 24.697 25.2101L24.6998 25.2139C25.0753 25.7303 25.3513 26.1375 25.3513 26.7645C25.3513 27.4048 24.819 27.9459 24.1344 27.9459C23.4488 27.9459 22.919 27.4211 22.9174 26.7674C22.9331 26.1297 23.2038 25.7399 23.5577 25.2303C23.5619 25.2242 23.5661 25.2181 23.5704 25.212C23.7488 24.9682 23.9516 24.6899 24.1373 24.3474Z" fill="#303A4B"></path></svg>