<svg width="50" height="50" viewBox="0 0 50 50" fill="none" xmlns="http://www.w3.org/2000/svg"><path d="M25 49.5C38.531 49.5 49.5 38.531 49.5 25C49.5 11.469 38.531 0.5 25 0.5C11.469 0.5 0.5 11.469 0.5 25C0.5 38.531 11.469 49.5 25 49.5Z" fill="white" stroke="#EEF2F4"></path><path d="M23.8078 13H21.4232L19.8335 14L19.436 15L20.2309 15.5L21.4232 15L23.013 14.5L24.2053 13.5L23.8078 13Z" fill="#FFA010"></path><path d="M33.1636 33.4644H32.06V32.543C32.06 31.9118 31.5317 31.3977 30.8831 31.3977H29.6513V30.2905C29.6513 29.8069 29.2486 29.415 28.7517 29.415H26.398L24.8132 22.0516C25.263 20.5041 25.6788 16.4318 25.3257 14.7316C25.025 13.2681 23.7618 11.7384 21.2094 12.2398C19.2139 12.6343 17.7965 13.2044 17.4225 14.6221C17.4173 14.6374 17.4147 14.6527 17.412 14.6679C17.3833 14.7901 17.3597 14.9174 17.344 15.0548C17.2159 16.2511 17.9979 18.0353 19.5225 18.9566C20.8275 19.7431 21.7141 22.3291 21.7926 22.5683L23.2179 29.415H21.1937C20.6968 29.415 20.294 29.8069 20.294 30.2905V31.3977H19.0623C18.4137 31.3977 17.8854 31.9118 17.8854 32.543V33.4644H16.8367C16.6118 33.4644 16.4287 33.6426 16.4287 33.8615V36.6027C16.4287 36.8216 16.6118 36.9997 16.8367 36.9997H33.1636C33.3885 36.9997 33.5716 36.8216 33.5716 36.6027V33.8615C33.5716 33.6426 33.3885 33.4644 33.1636 33.4644ZM22.6713 22.777L24.0783 22.4996L24.1907 23.0214L22.7811 23.2988L22.6713 22.777ZM21.3715 13.0212C21.6618 12.9652 21.9233 12.9397 22.1639 12.9397C22.9093 12.9397 23.4245 13.1892 23.7801 13.5149C23.7723 13.6778 23.5945 13.8509 23.4375 13.9731C22.2424 14.8996 19.159 15.3933 18.3404 14.953C18.2201 14.8894 18.2149 14.841 18.2175 14.7977C18.4267 14.0189 19.1302 13.4615 21.3715 13.0212ZM19.954 18.2796C18.9315 17.6637 18.3561 16.5819 18.1966 15.7522C18.5157 15.8616 18.9184 15.9125 19.3682 15.9125C20.9217 15.9125 23.0086 15.3221 23.9475 14.5941C24.0992 14.4745 24.2195 14.3574 24.311 14.2429C24.4339 14.5 24.4967 14.7367 24.5281 14.8868C24.8445 16.4114 24.4732 20.1529 24.0678 21.6902L22.4594 22.0084C22.1535 21.1761 21.2695 19.0737 19.954 18.2796ZM22.9406 24.0802L24.3555 23.8002L25.5637 29.4124H24.0495L22.9406 24.0802ZM21.1126 30.288C21.1126 30.2447 21.1518 30.2065 21.1963 30.2065H28.7543C28.7988 30.2065 28.838 30.2447 28.838 30.288V31.3951H21.1126V30.288ZM18.704 32.5405C18.704 32.3471 18.8661 32.1892 19.0649 32.1892H30.8857C31.0845 32.1892 31.2466 32.3471 31.2466 32.5405V33.4619H18.704V32.5405ZM32.7556 36.2056H17.2447V34.2585H32.7556V36.2056V36.2056Z" fill="#303A4B"></path></svg>