<svg width="20" height="17" viewBox="0 0 20 17" fill="none" xmlns="http://www.w3.org/2000/svg">
<path d="M17.0001 6.3007V2.0007C17.0001 1.4507 16.5501 1.0007 16.0001 1.0007H15.0001C14.4501 1.0007 14.0001 1.4507 14.0001 2.0007V3.6007L10.6701 0.600703C10.2901 0.260703 9.7101 0.260703 9.3301 0.600703L0.970098 8.1307C0.630098 8.4307 0.840098 9.0007 1.3001 9.0007H3.0001V16.0007C3.0001 16.5507 3.4501 17.0007 4.0001 17.0007H7.0001C7.5501 17.0007 8.0001 16.5507 8.0001 16.0007V11.0007H12.0001V16.0007C12.0001 16.5507 12.4501 17.0007 13.0001 17.0007H16.0001C16.5501 17.0007 17.0001 16.5507 17.0001 16.0007V9.0007H18.7001C19.1601 9.0007 19.3801 8.4307 19.0301 8.1307L17.0001 6.3007ZM8.0001 7.0007C8.0001 5.9007 8.9001 5.0007 10.0001 5.0007C11.1001 5.0007 12.0001 5.9007 12.0001 7.0007H8.0001Z" fill=""/>
</svg>
