<svg width="262" height="178" viewBox="0 0 262 178" fill="none" xmlns="http://www.w3.org/2000/svg">
<g clip-path="url(#clip0_1547_2627)">
<mask id="mask0_1547_2627" style="mask-type:luminance" maskUnits="userSpaceOnUse" x="0" y="0" width="262" height="178">
<path d="M261.5 0H0.5V177.676H261.5V0Z" fill="white"/>
</mask>
<g mask="url(#mask0_1547_2627)">
<mask id="mask1_1547_2627" style="mask-type:luminance" maskUnits="userSpaceOnUse" x="14" y="19" width="233" height="159">
<path d="M14.9587 19.9375H246.767V177.741H14.9587V19.9375Z" fill="white"/>
</mask>
<g mask="url(#mask1_1547_2627)">
<path d="M19.3115 78.1602C21.714 78.1602 23.6647 80.1108 23.6647 82.5134C23.6647 84.9159 21.714 86.8666 19.3115 86.8666C16.9089 86.8666 14.9583 84.9159 14.9583 82.5134C14.9583 80.1108 16.9089 78.1602 19.3115 78.1602Z" fill="#B3C3C6"/>
<path d="M219.559 112.988C221.962 112.988 223.912 114.939 223.912 117.341C223.912 119.744 221.962 121.695 219.559 121.695C217.157 121.695 215.206 119.744 215.206 117.341C215.206 114.939 217.157 112.988 219.559 112.988Z" fill="#B3C3C6"/>
<path d="M181.469 20.4805C183.871 20.4805 185.822 22.4311 185.822 24.8337C185.822 27.2362 183.871 29.1869 181.469 29.1869C179.066 29.1869 177.116 27.2362 177.116 24.8337C177.116 22.4311 179.066 20.4805 181.469 20.4805Z" stroke="#B3C1C6" stroke-width="1.0883"/>
</g>
<mask id="mask2_1547_2627" style="mask-type:luminance" maskUnits="userSpaceOnUse" x="15" y="20" width="232" height="158">
<path d="M15.7266 20.6602H246.273V177.605H15.7266V20.6602Z" fill="white"/>
</mask>
<g mask="url(#mask2_1547_2627)">
<path d="M56.4837 44.3425C53.2696 45.9284 49.3722 44.6065 47.7862 41.3923C46.2002 38.1781 47.5222 34.2807 50.7363 32.6947C53.9505 31.1087 57.8479 32.4307 59.4339 35.6449C61.0199 38.8591 59.6979 42.7565 56.4837 44.3425Z" stroke="#B3C1C6" stroke-width="1.08238"/>
<path d="M34.4703 131.221L29.5996 122.784L30.537 122.243L35.4077 130.679L34.4703 131.221ZM29.0248 129.365L28.4836 128.428L35.9825 124.098L36.5237 125.036L29.0248 129.365Z" fill="#CAD4D6"/>
<path d="M246.025 81.2782L237.367 76.8132L237.863 75.8512L246.521 80.3162L246.025 81.2782ZM240.441 82.6607L239.479 82.1646L243.447 74.4687L244.409 74.9648L240.441 82.6607Z" fill="#CAD4D6"/>
<path d="M132.848 37.0833L123.454 34.502L123.741 33.4583L133.134 36.0396L132.848 37.0833ZM127.669 39.589L126.625 39.3022L128.92 30.9527L129.963 31.2395L127.669 39.589Z" fill="#CAD4D6"/>
</g>
<mask id="mask3_1547_2627" style="mask-type:luminance" maskUnits="userSpaceOnUse" x="0" y="0" width="262" height="178">
<path d="M0.5 0H261.5V177.676H0.5V0Z" fill="white"/>
</mask>
<g mask="url(#mask3_1547_2627)">
<mask id="mask4_1547_2627" style="mask-type:luminance" maskUnits="userSpaceOnUse" x="0" y="0" width="262" height="178">
<path d="M0.5 0H261.5V177.676H0.5V0Z" fill="white"/>
</mask>
<g mask="url(#mask4_1547_2627)">
<path d="M142.501 105.87L161.867 125.236L151.277 135.827L131.91 116.461L142.501 105.87Z" fill="#D7D7D7"/>
<path d="M162.023 118.119L185.637 141.733C188.028 144.124 188.028 148.007 185.637 150.398L176.065 159.97C173.674 162.361 169.792 162.361 167.401 159.97L143.787 136.356C141.396 133.965 141.396 130.082 143.787 127.691L153.359 118.119C155.75 115.728 159.632 115.728 162.023 118.119Z" fill="#4973E9"/>
<path d="M145.606 114.753C160.761 99.5158 160.745 74.7997 145.579 59.5458C130.413 44.2918 105.83 44.2838 90.6804 59.5209C75.525 74.7585 75.5348 99.4751 90.7067 114.722C105.873 129.976 130.45 129.991 145.606 114.753Z" fill="#4973E9"/>
<path d="M95.2926 65.461C107.247 53.5068 126.668 53.5162 138.634 65.482C150.6 77.4478 150.609 96.869 138.655 108.823C126.701 120.777 107.279 120.768 95.3137 108.802C83.3479 96.8364 83.3384 77.4152 95.2926 65.461Z" fill="white"/>
</g>
<g opacity="0.92">
<path d="M108.052 78.7969C109.555 78.7969 110.775 81.1225 110.775 83.9868C110.775 86.8511 109.555 89.1767 108.052 89.1767C106.549 89.1767 105.329 86.8511 105.329 83.9868C105.329 81.1225 106.549 78.7969 108.052 78.7969Z" fill="black"/>
</g>
<g opacity="0.92">
<path d="M125.23 78.7969C126.733 78.7969 127.953 81.1225 127.953 83.9868C127.953 86.8511 126.733 89.1767 125.23 89.1767C123.727 89.1767 122.507 86.8511 122.507 83.9868C122.507 81.1225 123.727 78.7969 125.23 78.7969Z" fill="black"/>
</g>
<path d="M152.444 87.3559C158.534 87.3559 163.472 83.7472 163.472 79.2931C163.472 74.8389 152.444 64.0742 152.444 64.0742C152.444 64.0742 141.416 74.8389 141.416 79.2931C141.416 83.7472 146.354 87.3559 152.444 87.3559Z" fill="url(#paint0_linear_1547_2627)"/>
<path d="M123.341 99.1662C114.962 94.977 108.246 99.6468 109.349 99.4075C114.174 98.3621 123.663 99.3271 123.341 99.1662Z" fill="#748394"/>
</g>
<path d="M113.382 163.277C120.092 163.277 125.54 164.188 125.54 165.309C125.54 166.43 120.092 167.34 113.382 167.34C106.672 167.34 101.224 166.43 101.224 165.309C101.224 164.188 106.672 163.277 113.382 163.277Z" fill="#D8DBDF"/>
</g>
</g>
<defs>
<linearGradient id="paint0_linear_1547_2627" x1="152.456" y1="70.0564" x2="158.698" y2="87.3559" gradientUnits="userSpaceOnUse">
<stop stop-color="#B0F9FF"/>
<stop offset="0.5" stop-color="#B6F3FE"/>
<stop offset="1" stop-color="#BCEEFD"/>
</linearGradient>
<clipPath id="clip0_1547_2627">
<rect width="261" height="177.676" fill="white" transform="translate(0.5)"/>
</clipPath>
</defs>
</svg>
