<svg width="50" height="50" viewBox="0 0 50 50" fill="none" xmlns="http://www.w3.org/2000/svg"><path d="M25 49.5C38.531 49.5 49.5 38.531 49.5 25C49.5 11.469 38.531 0.5 25 0.5C11.469 0.5 0.5 11.469 0.5 25C0.5 38.531 11.469 49.5 25 49.5Z" fill="white" stroke="#EEF2F4"></path><path d="M21.0005 32.4287H29.0005V33.5716H21.0005V32.4287Z" fill="#FFA010"></path><path d="M25.5713 24.5715L17.5713 17.5715L24.5713 25.5715L25.5713 24.5715Z" fill="#FFA010"></path><path d="M25.0004 13.0991C18.428 13.0991 13.0996 18.427 13.0996 24.9999C13.0996 31.5728 18.428 36.9007 25.0004 36.9007C31.5733 36.9007 36.9012 31.5728 36.9012 24.9999C36.9012 18.427 31.5733 13.0991 25.0004 13.0991ZM25.0004 36.3429C18.7459 36.3429 13.6574 31.2543 13.6574 24.9999C13.6574 18.7455 18.7459 13.6569 25.0004 13.6569C31.2548 13.6569 36.3434 18.7455 36.3434 24.9999C36.3434 31.2543 31.2548 36.3429 25.0004 36.3429Z" fill="#303A4B"></path><path d="M29.0976 31.6941H20.9158C20.7103 31.6941 20.5439 31.8605 20.5439 32.066V33.5536C20.5439 33.7591 20.7103 33.9255 20.9158 33.9255H29.0976C29.3031 33.9255 29.4695 33.7591 29.4695 33.5536V32.066C29.4695 31.8605 29.3031 31.6941 29.0976 31.6941ZM22.2174 33.3677H21.1017V32.252H22.2174V33.3677ZM23.891 33.3677H22.7753V32.252H23.891V33.3677ZM25.5645 33.3677H24.4488V32.252H25.5645V33.3677ZM27.2381 33.3677H26.1224V32.252H27.2381V33.3677ZM28.9116 33.3677H27.7959V32.252H28.9116V33.3677Z" fill="#303A4B"></path><path d="M24.2117 25.7888C24.4293 26.0064 24.7147 26.1152 25.0006 26.1152C25.2865 26.1152 25.5719 26.0064 25.7895 25.7888C26.2246 25.3537 26.2246 24.6462 25.7895 24.2111C25.6054 24.027 20.0822 19.573 18.1344 18.0031C18.1153 17.9878 18.0953 17.9812 18.0763 17.9812C18.007 17.9812 17.9494 18.0659 18.0038 18.1337C19.5736 20.0816 24.0276 25.6048 24.2117 25.7888ZM25.3999 24.6104C25.5022 24.715 25.558 24.853 25.558 24.9999C25.558 25.1492 25.5003 25.2896 25.3953 25.3946C25.2902 25.4997 25.1503 25.5573 25.0006 25.5573C24.8537 25.5573 24.7152 25.5011 24.611 25.3993C24.4655 25.2384 22.8338 23.3176 20.7967 20.7961C23.3177 22.8327 25.2386 24.4644 25.3999 24.6104Z" fill="#303A4B"></path><path d="M34.7628 24.721H32.5314C32.3775 24.721 32.2525 24.846 32.2525 24.9999C32.2525 25.1538 32.3775 25.2788 32.5314 25.2788H34.7628C34.9167 25.2788 35.0417 25.1538 35.0417 24.9999C35.0417 24.846 34.9167 24.721 34.7628 24.721Z" fill="#303A4B"></path><path d="M31.7002 22.2243C31.7449 22.3317 31.8485 22.3968 31.9582 22.3968C31.9936 22.3968 32.0298 22.3898 32.0647 22.3754L34.1264 21.5214C34.2687 21.4624 34.3365 21.2992 34.2775 21.1569C34.2185 21.0147 34.0557 20.9468 33.913 21.0059L31.8513 21.8598C31.7091 21.9189 31.6417 22.082 31.7002 22.2243Z" fill="#303A4B"></path><path d="M32.1003 17.9001C31.9915 17.7913 31.8149 17.7913 31.7061 17.9001L30.1283 19.4779C30.0195 19.5867 30.0195 19.7634 30.1283 19.8721C30.1827 19.9265 30.2543 19.954 30.3254 19.954C30.397 19.954 30.4681 19.9265 30.5225 19.8721L32.1003 18.2943C32.2096 18.1856 32.2096 18.0089 32.1003 17.9001Z" fill="#303A4B"></path><path d="M27.7756 18.3C27.8105 18.3144 27.8467 18.3214 27.8821 18.3214C27.9918 18.3214 28.0954 18.2568 28.1401 18.1489L28.994 16.0872C29.0531 15.9449 28.9852 15.7818 28.843 15.7227C28.7007 15.6637 28.5375 15.7316 28.4785 15.8738L27.6245 17.9355C27.5655 18.0778 27.6334 18.241 27.7756 18.3Z" fill="#303A4B"></path><path d="M25.0004 17.7478C25.1543 17.7478 25.2793 17.6228 25.2793 17.4689V15.2375C25.2793 15.0836 25.1543 14.9586 25.0004 14.9586C24.8465 14.9586 24.7215 15.0836 24.7215 15.2375V17.4689C24.7215 17.6228 24.8465 17.7478 25.0004 17.7478Z" fill="#303A4B"></path><path d="M21.8608 18.1497C21.9054 18.2571 22.0091 18.3222 22.1188 18.3222C22.1541 18.3222 22.1904 18.3152 22.2253 18.3008C22.3675 18.2417 22.4354 18.0786 22.3763 17.9363L21.5224 15.8746C21.4633 15.7323 21.3006 15.6649 21.1579 15.7235C21.0157 15.7825 20.9478 15.9457 21.0068 16.088L21.8608 18.1497Z" fill="#303A4B"></path><path d="M18.1495 21.8598L16.0877 21.0059C15.945 20.9468 15.7823 21.0147 15.7233 21.1569C15.6642 21.2992 15.7316 21.4624 15.8744 21.5214L17.9361 22.3754C17.971 22.3898 18.0072 22.3968 18.0425 22.3968C18.1523 22.3968 18.2559 22.3321 18.3006 22.2243C18.3591 22.082 18.2917 21.9189 18.1495 21.8598Z" fill="#303A4B"></path><path d="M17.7483 24.9999C17.7483 24.846 17.6233 24.721 17.4694 24.721H15.238C15.0841 24.721 14.9591 24.846 14.9591 24.9999C14.9591 25.1538 15.0841 25.2788 15.238 25.2788H17.4694C17.6233 25.2788 17.7483 25.1538 17.7483 24.9999Z" fill="#303A4B"></path><path d="M17.936 27.6245L15.8743 28.4785C15.732 28.5375 15.6642 28.7007 15.7232 28.843C15.7678 28.9503 15.8715 29.0154 15.9812 29.0154C16.0166 29.0154 16.0528 29.0085 16.0877 28.994L18.1494 28.1401C18.2917 28.081 18.3595 27.9179 18.3005 27.7756C18.2414 27.6334 18.0787 27.5655 17.936 27.6245Z" fill="#303A4B"></path><path d="M34.1262 28.4776L32.0645 27.6236C31.9222 27.5646 31.759 27.632 31.7 27.7747C31.641 27.917 31.7084 28.0801 31.8511 28.1392L33.9128 28.9931C33.9477 29.0075 33.9839 29.0145 34.0193 29.0145C34.129 29.0145 34.2326 28.9499 34.2773 28.842C34.3363 28.6998 34.2689 28.5366 34.1262 28.4776Z" fill="#303A4B"></path><path fill-rule="evenodd" clip-rule="evenodd" d="M18.1965 17.9263C19.1704 18.7112 21.0383 20.2172 22.6856 21.55C23.5093 22.2164 24.2779 22.8396 24.8522 23.3077C25.1393 23.5417 25.378 23.7371 25.5507 23.8798C25.7204 24.02 25.8322 24.114 25.8595 24.1413C26.3334 24.6152 26.3334 25.3855 25.8595 25.8594C25.6226 26.0963 25.3116 26.2147 25.0005 26.2147C24.6894 26.2147 24.3784 26.0963 24.1415 25.8594C24.1141 25.832 24.0201 25.7202 23.8799 25.5505C23.7373 25.3778 23.5419 25.1391 23.3078 24.852C22.8398 24.2778 22.2166 23.5091 21.5502 22.6855C20.2174 21.0381 18.7114 19.1703 17.9264 18.1963C17.8722 18.1286 17.8726 18.0466 17.9066 17.9847C17.9383 17.9271 18.0013 17.8825 18.0762 17.8825C18.1192 17.8825 18.1609 17.8976 18.1965 17.9263ZM31.6084 22.2624C31.5291 22.0698 31.6203 21.8487 31.8132 21.7686L33.875 20.9146C34.0685 20.8346 34.2891 20.9267 34.369 21.1193C34.4491 21.3124 34.3569 21.5334 34.1643 21.6134L32.1025 22.4674C32.0557 22.4868 32.0065 22.4963 31.9581 22.4963C31.8095 22.4963 31.6689 22.4079 31.6084 22.2624ZM27.7375 18.392C27.5449 18.312 27.4527 18.091 27.5328 17.8979L28.3868 15.8363C28.4667 15.6436 28.6878 15.5514 28.8809 15.6315C29.0735 15.7115 29.1657 15.9325 29.0855 16.1256L28.2316 18.1872C28.2316 18.1872 28.2316 18.1872 28.2316 18.1872C28.1711 18.3334 28.0304 18.4209 27.882 18.4209C27.8336 18.4209 27.7844 18.4114 27.7375 18.392ZM28.1401 18.1489L28.994 16.0872C29.0531 15.9449 28.9852 15.7818 28.843 15.7227C28.7007 15.6637 28.5375 15.7316 28.4785 15.8738L27.6245 17.9355C27.5655 18.0778 27.6334 18.241 27.7756 18.3C27.8105 18.3144 27.8467 18.3214 27.8821 18.3214C27.9918 18.3214 28.0954 18.2568 28.1401 18.1489ZM21.7691 18.188L20.9151 16.1264C20.835 15.9333 20.9272 15.7122 21.1198 15.6323C21.3129 15.5531 21.5338 15.6441 21.6139 15.837L22.4678 17.8987C22.548 18.0918 22.4558 18.3128 22.2632 18.3928C22.2163 18.4121 22.1671 18.4217 22.1187 18.4217C21.9701 18.4217 21.8295 18.3335 21.7691 18.188ZM22.3763 17.9363C22.4354 18.0786 22.3675 18.2417 22.2253 18.3008C22.1904 18.3152 22.1541 18.3222 22.1188 18.3222C22.0091 18.3222 21.9054 18.2571 21.8608 18.1497L21.0068 16.088C20.9478 15.9457 21.0157 15.7825 21.1579 15.7235C21.3006 15.6649 21.4633 15.7323 21.5224 15.8746L22.3763 17.9363ZM18.1874 21.7686C18.3803 21.8487 18.4715 22.0698 18.3922 22.2624C18.3316 22.4087 18.1908 22.4963 18.0424 22.4963C17.9941 22.4963 17.945 22.4868 17.8981 22.4674L15.8364 21.6134C15.8363 21.6134 15.8364 21.6134 15.8364 21.6134C15.643 21.5334 15.5515 21.3122 15.6316 21.1193C15.7115 20.9267 15.9321 20.8346 16.1256 20.9146L18.1874 21.7686ZM15.8744 21.5214L17.9361 22.3754C17.971 22.3898 18.0072 22.3968 18.0425 22.3968C18.1523 22.3968 18.2559 22.3321 18.3006 22.2243C18.3591 22.082 18.2917 21.9189 18.1495 21.8598L16.0877 21.0059C15.945 20.9468 15.7823 21.0147 15.7233 21.1569C15.6642 21.2992 15.7316 21.4624 15.8744 21.5214ZM17.898 27.5333C18.0915 27.4532 18.312 27.5454 18.392 27.738C18.4721 27.9311 18.3799 28.1521 18.1873 28.2321L16.1255 29.0861C16.0787 29.1054 16.0295 29.115 15.9811 29.115C15.8325 29.115 15.692 29.0269 15.6315 28.8814C15.5514 28.6883 15.6436 28.4672 15.8362 28.3873L17.898 27.5333ZM33.9128 28.9931L31.8511 28.1392C31.7084 28.0801 31.641 27.917 31.7 27.7747C31.759 27.632 31.9222 27.5646 32.0645 27.6236L34.1262 28.4776C34.2689 28.5366 34.3363 28.6998 34.2773 28.842C34.2326 28.9499 34.129 29.0145 34.0193 29.0145C33.9839 29.0145 33.9477 29.0075 33.9128 28.9931ZM34.3688 28.8805C34.3082 29.0266 34.1675 29.1141 34.0192 29.1141C33.9708 29.1141 33.9217 29.1045 33.8748 29.0852L31.8131 28.2312C31.8131 28.2312 31.8131 28.2312 31.8131 28.2312C31.6198 28.1512 31.5283 27.93 31.6083 27.7372M34.164 28.3863L32.1024 27.5324L34.164 28.3863ZM13.0003 25.0003C13.0003 18.3726 18.3731 13.0003 25.0003 13.0003C31.6279 13.0003 37.0003 18.3726 37.0003 25.0003C37.0003 31.6279 31.6279 37.0003 25.0003 37.0003C18.3731 37.0003 13.0003 31.6279 13.0003 25.0003ZM13.7565 25.0003C13.7565 31.2 18.8006 36.2441 25.0003 36.2441C31.2 36.2441 36.2441 31.2 36.2441 25.0003C36.2441 18.8006 31.2 13.7565 25.0003 13.7565C18.8006 13.7565 13.7565 18.8006 13.7565 25.0003ZM20.4446 32.0664C20.4446 31.8062 20.6554 31.5953 20.9157 31.5953H29.0975C29.3577 31.5953 29.5686 31.8062 29.5686 32.0664V33.554C29.5686 33.8143 29.3577 34.0251 29.0975 34.0251H20.9157C20.6554 34.0251 20.4446 33.8143 20.4446 33.554V32.0664ZM21.2008 33.2689H22.1182V32.3515H21.2008V33.2689ZM22.8744 33.2689H23.7917V32.3515H22.8744V33.2689ZM24.5479 33.2689H25.4653V32.3515H24.5479V33.2689ZM26.2215 33.2689H27.1388V32.3515H26.2215V33.2689ZM27.895 33.2689H28.8124V32.3515H27.895V33.2689ZM18.1344 18.0031C20.0822 19.573 25.6054 24.027 25.7895 24.2111C26.2246 24.6462 26.2246 25.3537 25.7895 25.7888C25.5719 26.0064 25.2865 26.1152 25.0006 26.1152C24.7147 26.1152 24.4293 26.0064 24.2117 25.7888C24.0276 25.6048 19.5736 20.0816 18.0038 18.1337C17.9494 18.0659 18.007 17.9812 18.0763 17.9812C18.0953 17.9812 18.1153 17.9878 18.1344 18.0031ZM25.3999 24.6104C25.2466 24.4716 23.5036 22.991 21.1666 21.0959C21.0448 20.9972 20.9216 20.8969 20.7967 20.7961C20.8976 20.9209 20.9973 21.0447 21.0961 21.1664C22.9916 23.5038 24.4727 25.2464 24.611 25.3993C24.7152 25.5011 24.8537 25.5573 25.0006 25.5573C25.1503 25.5573 25.2902 25.4997 25.3953 25.3946C25.5003 25.2896 25.558 25.1492 25.558 24.9999C25.558 24.853 25.5022 24.715 25.3999 24.6104ZM24.6824 25.3308C24.5416 25.1743 23.2132 23.611 21.472 21.4718C23.6108 23.2127 25.1741 24.5411 25.331 24.6822C25.4136 24.7678 25.4587 24.8801 25.4587 25.0003C25.4587 25.1236 25.4113 25.2386 25.3251 25.3249C25.2388 25.4112 25.1241 25.4585 25.0005 25.4585C24.8803 25.4585 24.7676 25.413 24.6824 25.3308ZM32.5313 24.6222H34.7627C34.9713 24.6222 35.1408 24.7916 35.1408 25.0003C35.1408 25.2089 34.9713 25.3784 34.7627 25.3784H32.5313C32.3226 25.3784 32.1532 25.2089 32.1532 25.0003C32.1532 24.7916 32.3226 24.6222 32.5313 24.6222ZM34.1264 21.5214L32.0647 22.3754C32.0298 22.3898 31.9936 22.3968 31.9582 22.3968C31.8485 22.3968 31.7449 22.3317 31.7002 22.2243C31.6417 22.082 31.7091 21.9189 31.8513 21.8598L33.913 21.0059C34.0557 20.9468 34.2185 21.0147 34.2775 21.1569C34.3365 21.2992 34.2687 21.4624 34.1264 21.5214ZM31.6359 17.8304C31.7833 17.6829 32.0227 17.6829 32.1702 17.8302C32.1702 17.8303 32.1702 17.8302 32.1702 17.8302L32.1003 17.9001M31.6359 17.8304L30.0581 19.4082L31.6359 17.8304ZM30.0581 19.4082C29.9106 19.5557 29.9106 19.7951 30.0581 19.9426V19.4082ZM30.0581 19.9426C30.1317 20.0163 30.2288 20.0535 30.3253 20.0535L30.0581 19.9426ZM30.3253 20.0535C30.4224 20.0535 30.519 20.0162 30.5926 19.9426L30.3253 20.0535ZM30.5926 19.9426L32.1702 18.365L30.5926 19.9426ZM25.3784 17.4693C25.3784 17.6779 25.2089 17.8474 25.0003 17.8474C24.7916 17.8474 24.6222 17.6779 24.6222 17.4693V15.2379C24.6222 15.0293 24.7916 14.8598 25.0003 14.8598C25.2089 14.8598 25.3784 15.0293 25.3784 15.2379V17.4693ZM17.4693 24.6222C17.6779 24.6222 17.8474 24.7916 17.8474 25.0003C17.8474 25.2089 17.6779 25.3784 17.4693 25.3784H15.2379C15.0293 25.3784 14.8598 25.2089 14.8598 25.0003C14.8598 24.7916 15.0293 24.6222 15.2379 24.6222H17.4693ZM15.7232 28.843C15.6642 28.7007 15.732 28.5375 15.8743 28.4785L17.936 27.6245C18.0787 27.5655 18.2414 27.6334 18.3005 27.7756C18.3595 27.9179 18.2917 28.081 18.1494 28.1401L16.0877 28.994C16.0528 29.0085 16.0166 29.0154 15.9812 29.0154C15.8715 29.0154 15.7678 28.9503 15.7232 28.843ZM25.0004 13.0991C18.428 13.0991 13.0996 18.427 13.0996 24.9999C13.0996 31.5728 18.428 36.9007 25.0004 36.9007C31.5733 36.9007 36.9012 31.5728 36.9012 24.9999C36.9012 18.427 31.5733 13.0991 25.0004 13.0991ZM25.0004 36.3429C18.7459 36.3429 13.6574 31.2543 13.6574 24.9999C13.6574 18.7455 18.7459 13.6569 25.0004 13.6569C31.2548 13.6569 36.3434 18.7455 36.3434 24.9999C36.3434 31.2543 31.2548 36.3429 25.0004 36.3429ZM29.0976 31.6941H20.9158C20.7103 31.6941 20.5439 31.8605 20.5439 32.066V33.5536C20.5439 33.7591 20.7103 33.9255 20.9158 33.9255H29.0976C29.3031 33.9255 29.4695 33.7591 29.4695 33.5536V32.066C29.4695 31.8605 29.3031 31.6941 29.0976 31.6941ZM21.1017 33.3677V32.252H22.2174V33.3677H21.1017ZM22.7753 33.3677V32.252H23.891V33.3677H22.7753ZM24.4488 33.3677V32.252H25.5645V33.3677H24.4488ZM26.1224 33.3677V32.252H27.2381V33.3677H26.1224ZM27.7959 33.3677V32.252H28.9116V33.3677H27.7959ZM34.7628 24.721H32.5314C32.3775 24.721 32.2525 24.846 32.2525 24.9999C32.2525 25.1538 32.3775 25.2788 32.5314 25.2788H34.7628C34.9167 25.2788 35.0417 25.1538 35.0417 24.9999C35.0417 24.846 34.9167 24.721 34.7628 24.721ZM25.0004 17.7478C25.1543 17.7478 25.2793 17.6228 25.2793 17.4689V15.2375C25.2793 15.0836 25.1543 14.9586 25.0004 14.9586C24.8465 14.9586 24.7215 15.0836 24.7215 15.2375V17.4689C24.7215 17.6228 24.8465 17.7478 25.0004 17.7478ZM17.4694 24.721C17.6233 24.721 17.7483 24.846 17.7483 24.9999C17.7483 25.1538 17.6233 25.2788 17.4694 25.2788H15.238C15.0841 25.2788 14.9591 25.1538 14.9591 24.9999C14.9591 24.846 15.0841 24.721 15.238 24.721H17.4694Z" fill="#303A4B"></path><path fill-rule="evenodd" clip-rule="evenodd" d="M22.2675 33.4173H21.0518V32.2016H22.2675V33.4173ZM23.9411 33.4173H22.7254V32.2016H23.9411V33.4173ZM25.6146 33.4173H24.3989V32.2016H25.6146V33.4173ZM27.2882 33.4173H26.0725V32.2016H27.2882V33.4173ZM28.9617 33.4173H27.746V32.2016H28.9617V33.4173ZM17.9651 18.1649C18.7501 19.1389 20.256 21.0066 21.5886 22.6537C22.255 23.4773 22.8782 24.246 23.3462 24.8202C23.5801 25.1072 23.7755 25.3459 23.918 25.5184C24.0593 25.6894 24.1513 25.7986 24.1764 25.8238C24.4037 26.051 24.7021 26.1648 25.0006 26.1648C25.2991 26.1648 25.5974 26.0512 25.8247 25.824C26.2793 25.3694 26.2796 24.6301 25.8251 24.1755C25.7999 24.1503 25.6907 24.0583 25.5197 23.917C25.3471 23.7745 25.1085 23.5791 24.8214 23.3451C24.2473 22.8771 23.4786 22.2539 22.655 21.5876C21.0078 20.2549 19.14 18.7489 18.166 17.9639M18.1031 18.0417C19.0771 18.8266 20.9448 20.3325 22.592 21.6652C23.4156 22.3316 24.1841 22.9546 24.7581 23.4225C25.0452 23.6565 25.2835 23.8516 25.4558 23.994C25.6297 24.1376 25.7334 24.2252 25.7542 24.246C26.1698 24.6616 26.1698 25.3375 25.7542 25.7531C25.5464 25.9609 25.2739 26.0648 25.0007 26.0648C24.7275 26.0648 24.4549 25.9609 24.2472 25.7531C24.2263 25.7323 24.1387 25.6285 23.9951 25.4547C23.8528 25.2824 23.6576 25.044 23.4237 24.757C22.9557 24.1829 22.3327 23.4145 21.6664 22.5908C20.3337 20.9436 18.8277 19.0759 18.0428 18.102C18.0292 18.0851 18.0302 18.0691 18.0376 18.0557C18.0461 18.0402 18.062 18.0309 18.0764 18.0309M31.8706 21.9056C31.7539 21.954 31.6985 22.0879 31.7465 22.2047C31.7831 22.2929 31.8682 22.3464 31.9583 22.3464C31.9871 22.3464 32.0169 22.3407 32.0457 22.3288L34.1073 21.4748C34.2242 21.4263 34.2798 21.2923 34.2314 21.1757C34.1829 21.0589 34.0494 21.0032 33.9323 21.0517L31.8706 21.9056ZM28.5248 15.8926C28.5733 15.7757 28.7073 15.7201 28.8239 15.7685C28.9408 15.817 28.9964 15.951 28.948 16.0676L28.094 18.1294C28.0574 18.2179 27.9724 18.271 27.8822 18.271C27.8534 18.271 27.8237 18.2653 27.7949 18.2534C27.678 18.2049 27.6224 18.0709 27.6708 17.9543L28.5248 15.8926ZM28.3241 18.2251L29.178 16.1635C29.2794 15.9192 29.1627 15.6398 28.9193 15.5388C28.6749 15.4373 28.3955 15.5542 28.2945 15.7975L27.4406 17.8592M21.4763 15.8934L22.3302 17.9551C22.3786 18.0717 22.3231 18.2057 22.2062 18.2542C22.1774 18.2661 22.1476 18.2718 22.1189 18.2718C22.0288 18.2718 21.9438 18.2183 21.9071 18.1302M21.9071 18.1302L21.0531 16.0684C21.0047 15.9518 21.0603 15.8179 21.1771 15.7693C21.2944 15.7212 21.4279 15.7767 21.4763 15.8934M15.7982 21.7054L17.8599 22.5594C17.9189 22.5838 17.9811 22.5959 18.0425 22.5959C18.23 22.5959 18.4081 22.4852 18.4847 22.3003C18.5849 22.0568 18.4698 21.7771 18.2258 21.6759L16.1639 20.8218C15.9192 20.7206 15.6403 20.8372 15.5393 21.0806M18.2544 22.2048C18.2178 22.2933 18.1329 22.3464 18.0426 22.3464C18.0139 22.3464 17.9841 22.3407 17.9553 22.3288L15.8936 21.4748C15.7764 21.4263 15.7211 21.2924 15.7696 21.1757C15.8181 21.0588 15.9516 21.0032 16.0687 21.0517L18.1304 21.9056C18.2471 21.9541 18.3025 22.088 18.2544 22.2048ZM17.9552 27.6703L15.8936 28.5243C15.7767 28.5728 15.7211 28.7068 15.7695 28.8234C15.8061 28.9116 15.8912 28.965 15.9813 28.965C16.0101 28.965 16.0399 28.9594 16.0687 28.9474L18.1303 28.0935C18.2472 28.045 18.3028 27.911 18.2544 27.7944C18.2059 27.6775 18.0724 27.6219 17.9552 27.6703ZM34.1072 28.5234L32.0454 27.6694C31.9444 27.6275 31.8304 27.6633 31.7702 27.7497L34.2452 28.7747C34.2637 28.6713 34.2086 28.5653 34.1072 28.5234ZM34.3391 28.8136C34.3777 28.6584 34.298 28.4942 34.1454 28.431L34.2024 28.2936L32.1407 27.4396L32.0838 27.5771M31.6763 27.7108L31.6275 27.6906L31.6083 27.7372L31.516 27.6985C31.415 27.942 31.5302 28.2212 31.7738 28.3227M34.3688 28.8805L34.388 28.8339L34.3391 28.8136M34.3688 28.8805L34.4613 28.9183C34.3847 29.1032 34.2066 29.2137 34.0193 29.2137C33.9578 29.2137 33.8957 29.2016 33.8367 29.1772L31.7749 28.3232M34.2068 28.867L31.7321 27.8422C31.7141 27.9453 31.7692 28.0507 31.8703 28.0926L33.932 28.9465C33.9608 28.9584 33.9906 28.9641 34.0194 28.9641C34.0932 28.9641 34.1636 28.9285 34.2068 28.867ZM32.1702 18.365L32.241 18.4353L30.6634 20.013C30.5704 20.1059 30.4481 20.1531 30.3254 20.1531C30.2034 20.1531 30.0805 20.106 29.9875 20.013C29.8009 19.8264 29.8009 19.5236 29.9875 19.3371L31.5653 17.7593C31.7517 17.5729 32.054 17.5727 32.2406 17.7588C32.2407 17.8077 32.2238 17.8403 32.2017 17.8612L32.241 17.9006L32.2325 17.9091C32.3074 18.0398 32.2979 18.2057 32.2039 18.3275L32.2058 18.3295L32.1852 18.3499C32.1806 18.355 32.1751 18.3601 32.1702 18.365ZM32.2017 17.8612C32.2238 17.8403 32.2407 17.8077 32.2406 17.7588L32.1711 17.829C32.1784 17.8363 32.1853 17.8438 32.1919 17.8515L32.2017 17.8612ZM31.8897 17.9187C31.8486 17.9218 31.8083 17.939 31.7769 17.9704L30.1991 19.5482C30.1294 19.618 30.1294 19.7313 30.1991 19.801C30.2341 19.836 30.28 19.8536 30.3255 19.8536C30.3714 19.8536 30.4169 19.8361 30.4519 19.801L32.0297 18.2232C32.0997 18.1535 32.0998 18.0403 32.0299 17.9706C32.012 17.9527 31.9911 17.9393 31.9689 17.9305L31.8897 17.9187ZM25.0005 13.1487C18.4557 13.1487 13.1497 18.4542 13.1497 24.9995C13.1497 31.5448 18.4557 36.8503 25.0005 36.8503C31.5458 36.8503 36.8513 31.5448 36.8513 24.9995C36.8513 18.4542 31.5458 13.1487 25.0005 13.1487ZM25.0005 36.3925C18.7184 36.3925 13.6075 31.2816 13.6075 24.9995C13.6075 18.7175 18.7184 13.6065 25.0005 13.6065C31.2825 13.6065 36.3935 18.7175 36.3935 24.9995C36.3935 31.2816 31.2825 36.3925 25.0005 36.3925ZM20.9159 31.7437C20.738 31.7437 20.594 31.8878 20.594 32.0656V33.5532C20.594 33.7311 20.738 33.8751 20.9159 33.8751H29.0977C29.2756 33.8751 29.4196 33.7311 29.4196 33.5532V32.0656C29.4196 31.8878 29.2756 31.7437 29.0977 31.7437H20.9159ZM24.611 25.3993L24.5762 25.4346C24.6897 25.5457 24.8408 25.6069 25.0007 25.6069C25.1635 25.6069 25.3162 25.5441 25.4307 25.4296C25.5453 25.315 25.6081 25.1619 25.6081 24.9996C25.6081 24.8397 25.5473 24.6891 25.4358 24.575L25.3999 24.6104L25.4671 24.5358C25.3035 24.3878 23.3806 22.7545 20.8597 20.7179L20.719 20.8585C20.7459 20.8918 20.7727 20.925 20.7994 20.9581C20.873 21.0492 20.946 21.1396 21.0185 21.229C22.914 23.5663 24.3966 25.3108 24.537 25.466L24.611 25.3993ZM25.2615 24.7537C25.3244 24.8202 25.3588 24.9064 25.3588 24.9999C25.3588 25.0969 25.3217 25.1865 25.2544 25.2538C25.1871 25.3211 25.098 25.3582 25.0006 25.3582C24.9072 25.3582 24.8205 25.3234 24.7544 25.2608C24.6219 25.1126 23.5932 23.9027 22.1781 22.1774C23.9032 23.5923 25.1131 24.621 25.2615 24.7537ZM34.7629 24.7706H32.5315C32.4052 24.7706 32.3026 24.8733 32.3026 24.9995C32.3026 25.1258 32.4052 25.2284 32.5315 25.2284H34.7629C34.8891 25.2284 34.9918 25.1258 34.9918 24.9995C34.9918 24.8733 34.8891 24.7706 34.7629 24.7706ZM25.0005 17.6974C25.1267 17.6974 25.2294 17.5948 25.2294 17.4685V15.2371C25.2294 15.1109 25.1267 15.0082 25.0005 15.0082C24.8742 15.0082 24.7716 15.1109 24.7716 15.2371V17.4685C24.7716 17.5948 24.8742 17.6974 25.0005 17.6974ZM17.6984 24.9995C17.6984 24.8733 17.5958 24.7706 17.4695 24.7706H15.2381C15.1118 24.7706 15.0092 24.8733 15.0092 24.9995C15.0092 25.1258 15.1118 25.2284 15.2381 25.2284H17.4695C17.5958 25.2284 17.6984 25.1258 17.6984 24.9995ZM18.2594 17.848C19.2333 18.633 21.1012 20.139 22.7486 21.4719C23.5723 22.1383 24.3411 22.7616 24.9155 23.2298C25.2026 23.4638 25.4415 23.6594 25.6145 23.8023C25.7814 23.9403 25.8986 24.0385 25.9303 24.0702C26.4432 24.5831 26.4432 25.4168 25.9303 25.9297C25.6738 26.1862 25.337 26.3144 25.0006 26.3144C24.6642 26.3144 24.3274 26.1862 24.0709 25.9297C24.0392 25.898 23.9409 25.7808 23.8029 25.6138C23.66 25.4408 23.4645 25.202 23.2304 24.9148C22.7622 24.3404 22.139 23.5717 21.4726 22.748C20.1397 21.1005 18.6336 19.2326 17.8487 18.2587C17.7671 18.1569 17.7672 18.0305 17.8191 17.9362C17.8661 17.8506 17.9605 17.7821 18.0763 17.7821C18.1435 17.7821 18.2071 17.8059 18.2594 17.848ZM31.5161 22.3001C31.4158 22.0566 31.531 21.7771 31.775 21.6759L33.8368 20.8218C34.0815 20.7206 34.3604 20.8372 34.4614 21.0806C34.5629 21.3249 34.4461 21.6044 34.2028 21.7054L32.1409 22.5594C32.082 22.5837 32.0197 22.5959 31.9582 22.5959C31.7703 22.5959 31.5924 22.4839 31.5161 22.3001ZM27.4406 17.8592C27.3392 18.1035 27.4559 18.383 27.6993 18.484L27.4406 17.8592ZM21.6768 18.2259L20.8229 16.1643C20.7215 15.92 20.8382 15.6405 21.0816 15.5395C21.3252 15.4395 21.605 15.5542 21.7063 15.7982L22.5603 17.86C22.6617 18.1043 22.545 18.3837 22.3016 18.4847C22.2427 18.5091 22.1803 18.5213 22.1188 18.5213C21.931 18.5213 21.7532 18.4098 21.6768 18.2259ZM17.8599 27.4405C18.1046 27.3393 18.3834 27.4559 18.4844 27.6993C18.5859 27.9436 18.4691 28.223 18.2258 28.324L16.1639 29.1781C16.105 29.2024 16.0427 29.2146 15.9812 29.2146C15.7934 29.2146 15.6157 29.1033 15.5393 28.9194C15.4379 28.6751 15.5546 28.3955 15.7979 28.2945L17.8599 27.4405ZM28.3241 18.2251C28.2475 18.41 28.0694 18.5206 27.8821 18.5206C27.8205 18.5206 27.7582 18.5083 27.6993 18.484M12.9004 24.9999C12.9004 18.317 18.318 12.8999 25.0004 12.8999C31.6833 12.8999 37.1004 18.317 37.1004 24.9999C37.1004 31.6828 31.6833 37.0999 25.0004 37.0999C18.318 37.0999 12.9004 31.6828 12.9004 24.9999ZM13.8566 24.9999C13.8566 31.1443 18.8559 36.1437 25.0004 36.1437C31.1448 36.1437 36.1442 31.1443 36.1442 24.9999C36.1442 18.8555 31.1448 13.8561 25.0004 13.8561C18.8559 13.8561 13.8566 18.8555 13.8566 24.9999ZM20.3447 32.066C20.3447 31.7505 20.6003 31.4949 20.9158 31.4949H29.0976C29.4131 31.4949 29.6687 31.7505 29.6687 32.066V33.5536C29.6687 33.8691 29.4131 34.1247 29.0976 34.1247H20.9158C20.6003 34.1247 20.3447 33.8691 20.3447 33.5536V32.066ZM22.0183 33.1685V32.4511H21.3009V33.1685H22.0183ZM23.6918 33.1685V32.4511H22.9745V33.1685H23.6918ZM24.648 33.1685H25.3654V32.4511H24.648V33.1685ZM27.0389 33.1685V32.4511H26.3216V33.1685H27.0389ZM28.7125 33.1685V32.4511H27.9951V33.1685H28.7125ZM32.5314 24.5218H34.7628C35.0267 24.5218 35.2409 24.736 35.2409 24.9999C35.2409 25.2638 35.0267 25.478 34.7628 25.478H32.5314C32.2675 25.478 32.0533 25.2638 32.0533 24.9999C32.0533 24.736 32.2675 24.5218 32.5314 24.5218ZM25.4785 17.4689C25.4785 17.7328 25.2643 17.947 25.0004 17.947C24.7365 17.947 24.5223 17.7328 24.5223 17.4689V15.2375C24.5223 14.9736 24.7365 14.7594 25.0004 14.7594C25.2643 14.7594 25.4785 14.9736 25.4785 15.2375V17.4689ZM17.4694 24.5218C17.7333 24.5218 17.9475 24.736 17.9475 24.9999C17.9475 25.2638 17.7333 25.478 17.4694 25.478H15.238C14.9741 25.478 14.7599 25.2638 14.7599 24.9999C14.7599 24.736 14.9741 24.5218 15.238 24.5218H17.4694Z" fill="#303A4B"></path></svg>