<svg width="101" height="100" viewBox="0 0 101 100" fill="none" xmlns="http://www.w3.org/2000/svg">
<rect x="0.5" width="100" height="100" rx="50" fill="#50B252" fill-opacity="0.2"/>
<path d="M50.8678 13.2354C60.5209 13.2354 69.7786 17.07 76.6044 23.8958C83.4301 30.7216 87.2648 39.9793 87.2648 49.6324C87.2648 59.2855 83.4301 68.5432 76.6044 75.369C69.7786 82.1948 60.5209 86.0295 50.8678 86.0295C41.2147 86.0295 31.9569 82.1948 25.1312 75.369C18.3054 68.5432 14.4707 59.2855 14.4707 49.6324C14.4707 39.9793 18.3054 30.7216 25.1312 23.8958C31.9569 17.07 41.2147 13.2354 50.8678 13.2354ZM46.3337 56.813L38.2484 48.7225C37.9585 48.4326 37.6144 48.2027 37.2357 48.0458C36.857 47.889 36.4511 47.8082 36.0412 47.8082C35.6312 47.8082 35.2253 47.889 34.8466 48.0458C34.4679 48.2027 34.1238 48.4326 33.8339 48.7225C33.2485 49.3079 32.9197 50.1018 32.9197 50.9297C32.9197 51.7576 33.2485 52.5515 33.8339 53.1369L44.1291 63.4321C44.4181 63.7234 44.762 63.9546 45.1408 64.1124C45.5196 64.2702 45.926 64.3514 46.3363 64.3514C46.7467 64.3514 47.153 64.2702 47.5318 64.1124C47.9107 63.9546 48.2545 63.7234 48.5436 63.4321L69.8618 42.1086C70.1556 41.82 70.3892 41.476 70.5494 41.0966C70.7095 40.7172 70.7929 40.3098 70.7948 39.898C70.7968 39.4862 70.7171 39.0781 70.5605 38.6972C70.4039 38.3163 70.1735 37.9702 69.8824 37.6788C69.5914 37.3874 69.2456 37.1566 68.8649 36.9995C68.4842 36.8425 68.0761 36.7623 67.6643 36.7638C67.2525 36.7652 66.845 36.8481 66.4654 37.0078C66.0858 37.1675 65.7416 37.4008 65.4526 37.6942L46.3337 56.813Z" fill="#50B252"/>
</svg>
